<svg xmlns="http://www.w3.org/2000/svg" fill="none" viewBox="0 0 16 16"><path fill="#FBC02D" d="M15.844 6.433H15.2V6.4H8v3.2h4.521A4.798 4.798 0 0 1 3.2 8 4.8 4.8 0 0 1 8 3.2c1.224 0 2.337.462 3.184 1.216l2.263-2.263A7.96 7.96 0 0 0 8 0a8 8 0 1 0 7.844 6.433"/><path fill="#E53935" d="m.922 4.276 2.629 1.928A4.8 4.8 0 0 1 8 3.2c1.224 0 2.337.462 3.184 1.216l2.263-2.263A7.96 7.96 0 0 0 8 0 8 8 0 0 0 .922 4.276"/><path fill="#4CAF50" d="M8 16c2.066 0 3.944-.79 5.364-2.077l-2.476-2.095A4.76 4.76 0 0 1 8 12.8a4.8 4.8 0 0 1-4.513-3.178l-2.609 2.01A7.99 7.99 0 0 0 8 16"/><path fill="#1565C0" d="m15.844 6.433-.006-.033H8v3.2h4.521a4.8 4.8 0 0 1-1.635 2.228h.002l2.476 2.095C13.188 14.083 16 12 16 8c0-.536-.055-1.06-.156-1.567"/></svg>
